<svg version="1.1" id="Layer_1" xmlns="http://www.w3.org/2000/svg" x="0" y="0" viewBox="0 0 120 35" xml:space="preserve"><style>.st0{fill:#0033ff}</style><path class="st0" d="M19.49 9.78v15.64c0 .94-.06 1.78-.16 2.52-.11.74-.26 1.4-.46 1.96-.26.72-.67 1.39-1.23 2.01-.56.62-1.23 1.16-2.02 1.62-.79.46-1.68.82-2.67 1.08-1 .26-2.07.39-3.23.39-1.32 0-2.52-.16-3.62-.49-1.09-.33-2.05-.78-2.87-1.36a7.95 7.95 0 01-2.02-2.03C.69 30.35.34 29.5.16 28.58h6.69c.42 1.11 1.36 1.67 2.82 1.67 1.25 0 2.2-.35 2.87-1.05.67-.7 1-1.67 1-2.91v-1.6c-.44.41-.86.76-1.26 1.03-.41.27-.82.5-1.23.67-.42.17-.85.3-1.31.38-.46.08-.96.11-1.51.11-1.2 0-2.31-.21-3.31-.62a7.685 7.685 0 01-2.61-1.73c-.73-.74-1.3-1.63-1.71-2.67-.4-1.03-.6-2.18-.6-3.44 0-1.29.22-2.48.66-3.58.44-1.1 1.03-2.06 1.79-2.88.75-.82 1.65-1.46 2.69-1.93s2.17-.7 3.4-.7c1.99 0 3.66.74 5.02 2.22V9.78h5.93zM6.17 18.09c0 .55.1 1.05.3 1.52.2.47.46.88.8 1.23s.74.62 1.21.82c.47.2.98.29 1.53.29.53 0 1.02-.1 1.49-.29.47-.2.87-.47 1.21-.82.34-.35.61-.76.82-1.23.21-.47.31-.96.31-1.49 0-.54-.1-1.05-.31-1.5-.21-.46-.49-.86-.84-1.21s-.76-.62-1.23-.82-.96-.29-1.46-.29c-.53 0-1.02.1-1.48.31-.46.21-.86.48-1.21.82-.35.34-.63.74-.84 1.19-.2.45-.3.94-.3 1.47z"/><path d="M23.13 3.34c0-.46.09-.89.26-1.29s.42-.76.72-1.06.66-.55 1.07-.72c.41-.18.84-.27 1.3-.27.46 0 .89.09 1.3.26.4.17.76.41 1.07.72.31.31.55.66.72 1.06.17.4.26.83.26 1.29 0 .46-.09.89-.26 1.29-.18.4-.42.76-.72 1.06-.31.32-.67.56-1.07.73-.4.17-.84.26-1.3.26-.46 0-.89-.09-1.3-.26-.4-.17-.76-.41-1.07-.72a3.32 3.32 0 01-.72-1.06 3.34 3.34 0 01-.26-1.29z" fill="#0ff"/><path class="st0" d="M52.37 9.78v15.64c0 .94-.06 1.78-.16 2.52-.11.74-.26 1.4-.46 1.96-.26.72-.67 1.39-1.23 2.01-.56.62-1.23 1.16-2.02 1.62-.79.46-1.68.82-2.67 1.08-1 .26-2.07.39-3.23.39-1.31 0-2.52-.16-3.61-.49-1.09-.33-2.05-.78-2.87-1.36a7.95 7.95 0 01-2.02-2.03c-.52-.77-.87-1.62-1.05-2.54h6.69c.42 1.11 1.36 1.67 2.82 1.67 1.25 0 2.2-.35 2.87-1.05.67-.7 1-1.67 1-2.91v-1.6c-.44.41-.86.76-1.26 1.03-.41.27-.82.5-1.23.67-.42.17-.85.3-1.31.38-.46.08-.96.11-1.51.11-1.2 0-2.31-.21-3.31-.62a7.685 7.685 0 01-2.61-1.73c-.73-.74-1.3-1.63-1.71-2.67-.41-1.04-.61-2.19-.61-3.45 0-1.29.22-2.48.66-3.58.44-1.1 1.03-2.06 1.79-2.88.75-.82 1.65-1.46 2.69-1.93s2.17-.7 3.4-.7c1.99 0 3.66.74 5.02 2.22V9.78h5.93zm-13.32 8.31c0 .55.1 1.05.3 1.52.2.47.46.88.8 1.23s.74.62 1.21.82c.47.2.98.29 1.53.29.53 0 1.02-.1 1.49-.29.47-.2.87-.47 1.21-.82s.61-.76.82-1.23c.21-.47.31-.96.31-1.49 0-.54-.1-1.05-.31-1.5-.21-.46-.49-.86-.84-1.21s-.76-.62-1.23-.82-.96-.29-1.46-.29c-.53 0-1.02.1-1.48.31-.46.21-.86.48-1.21.82-.35.34-.63.74-.84 1.19-.2.45-.3.94-.3 1.47zM67.56 14.1c-1.09-.57-2.17-.85-3.22-.85-.55 0-.99.11-1.33.33-.34.22-.51.51-.51.88 0 .2.03.35.08.47s.17.23.36.34c.19.11.46.21.82.29.36.09.84.2 1.43.33 1.64.33 2.87.91 3.68 1.75s1.21 1.91 1.21 3.22c0 .98-.2 1.86-.59 2.65-.39.79-.94 1.45-1.64 1.98s-1.54.95-2.53 1.24c-.98.29-2.07.44-3.25.44-2.28 0-4.52-.64-6.73-1.93l2.17-4.19c1.66 1.13 3.24 1.7 4.73 1.7.55 0 1-.12 1.35-.36.35-.24.53-.55.53-.92 0-.22-.03-.4-.08-.54a.94.94 0 00-.34-.39c-.18-.12-.43-.23-.77-.33s-.78-.2-1.33-.31c-1.84-.37-3.12-.92-3.86-1.65-.73-.73-1.1-1.74-1.1-3.03 0-.94.17-1.78.53-2.54.35-.75.85-1.39 1.51-1.91s1.45-.93 2.38-1.21c.93-.28 1.96-.42 3.1-.42 1.86 0 3.66.36 5.41 1.08l-2.01 3.88zM80.2 14.72v11.84h-5.94V14.72h-1.97V9.78h1.97V4.74h5.94v5.04h3.38v4.94H80.2zM91.48 19.17c0 2.55 1.2 3.83 3.61 3.83 1.29 0 2.26-.52 2.92-1.57h5.74c-1.16 3.84-4.06 5.76-8.7 5.76-1.42 0-2.72-.21-3.91-.64a8.681 8.681 0 01-3.04-1.82 8.067 8.067 0 01-1.95-2.81c-.46-1.09-.69-2.31-.69-3.66 0-1.4.22-2.65.66-3.78.44-1.12 1.06-2.08 1.87-2.86.81-.78 1.79-1.39 2.94-1.82 1.15-.42 2.44-.64 3.89-.64 1.42 0 2.7.21 3.84.64 1.14.43 2.1 1.04 2.89 1.85s1.39 1.79 1.81 2.96c.42 1.17.62 2.48.62 3.94v.62h-12.5zm6.96-3.44c-.2-.83-.6-1.49-1.21-2-.61-.5-1.36-.75-2.23-.75-.92 0-1.67.24-2.25.72-.58.48-.95 1.16-1.1 2.03h6.79zM107.37 9.78h5.94v2.75c.63-1 1.41-1.77 2.33-2.31.92-.53 1.99-.8 3.22-.8h.51c.19 0 .4.02.64.07v5.66c-.79-.39-1.64-.59-2.56-.59-1.38 0-2.41.41-3.1 1.23-.69.82-1.03 2.01-1.03 3.58v7.2h-5.94V9.78zM23.31 9.94h5.94v16.78h-5.94z"/></svg>
