<svg xmlns="http://www.w3.org/2000/svg" xmlns:xlink="http://www.w3.org/1999/xlink" x="0px" y="0px" viewBox="0 0 161 33.2" xml:space="preserve">
    <g fill="#3174af">
  <path d="M12.5,0h4.6l3.8,20.9H21L24.2,0h5.3l-5.8,32.8h-4.7l-4.1-21.7h-0.1l-3.8,21.7H6.2L0,0h5.3l3.5,20.9h0.1L12.5,0z"></path>
      <path d="M45.5,21.5H34.8v3.5c0,1.4,0.2,2.4,0.7,3.1c0.5,0.6,1.2,0.9,2.1,0.9c0.9,0,1.6-0.3,2.1-0.9c0.5-0.6,0.7-1.6,0.7-3.1v-0.5
		h5.1c0,1.3-0.2,2.5-0.5,3.5c-0.3,1.1-0.7,2-1.4,2.7c-0.6,0.8-1.4,1.4-2.4,1.8c-1,0.4-2.2,0.6-3.6,0.6c-1.5,0-2.7-0.2-3.7-0.7
		c-1-0.4-1.8-1.1-2.5-1.9c-0.6-0.8-1.1-1.8-1.4-2.9c-0.3-1.1-0.4-2.3-0.4-3.7V17c0-1.3,0.1-2.6,0.4-3.7c0.3-1.1,0.7-2.1,1.4-2.9
		C32.1,9.6,33,9,34,8.6c1-0.4,2.2-0.7,3.7-0.7c1.5,0,2.7,0.2,3.7,0.7c1,0.4,1.8,1.1,2.5,1.9c0.6,0.8,1.1,1.8,1.4,2.9
		c0.3,1.1,0.4,2.3,0.4,3.7V21.5z M40.5,17.3v-1.3c0-1.4-0.2-2.4-0.7-3.1c-0.5-0.6-1.2-0.9-2.1-0.9c-0.9,0-1.6,0.3-2.1,0.9
		c-0.5,0.6-0.7,1.6-0.7,3.1v1.3H40.5z"></path>
      <path d="M48.4,32.8V0h5.1v10.4c0.5-0.4,0.9-0.7,1.3-1.1c0.4-0.3,0.8-0.6,1.2-0.8c0.4-0.2,0.8-0.4,1.2-0.5c0.4-0.1,0.9-0.2,1.5-0.2
		c1.6,0,2.9,0.6,3.8,1.7c0.9,1.2,1.4,2.8,1.4,5.1v11.7c0,2.2-0.5,3.9-1.4,5.1c-0.9,1.2-2.2,1.7-3.8,1.7c-1.3,0-2.3-0.2-3-0.7
		c-0.8-0.5-1.6-1.2-2.4-2.3h-0.1v2.5H48.4z M53.4,27.8c0.5,0.4,1,0.7,1.5,0.9c0.5,0.2,0.9,0.4,1.5,0.4c0.3,0,0.7-0.1,1-0.2
		c0.3-0.1,0.6-0.3,0.8-0.6c0.2-0.3,0.4-0.7,0.5-1.2c0.1-0.5,0.2-1.2,0.2-2V16c0-0.8-0.1-1.5-0.2-2c-0.1-0.5-0.3-0.9-0.5-1.2
		c-0.2-0.3-0.5-0.5-0.8-0.6c-0.3-0.1-0.6-0.2-1-0.2c-0.5,0-1,0.1-1.5,0.4c-0.5,0.2-0.9,0.5-1.5,0.9V27.8z"></path>
      <path d="M66.7,32.8V0h5.1v32.8H66.7z"></path>
      <path d="M75.3,15.5c0.2-2.5,1-4.4,2.4-5.7c1.5-1.3,3.4-2,5.8-2c2.4,0,4.2,0.5,5.5,1.6c1.3,1.1,1.9,2.8,1.9,5v15.7
		c0,0.4,0,0.8,0.1,1.3c0.1,0.5,0.1,0.9,0.2,1.3h-4.9c0-0.3-0.1-0.7-0.1-1c-0.1-0.3-0.1-0.6-0.1-0.9c-1,0.8-1.9,1.4-2.8,1.8
		c-0.9,0.4-1.9,0.6-3.2,0.6c-1.7,0-3-0.5-3.9-1.6c-0.9-1-1.3-2.4-1.3-3.9c0-1.3,0.2-2.5,0.7-3.6c0.4-1.1,1.1-2,2-2.9
		c0.9-0.9,2-1.7,3.4-2.4s3-1.5,4.8-2.2v-1.5c0-2.1-0.8-3.1-2.5-3.1c-1.2,0-1.9,0.3-2.3,0.9c-0.4,0.6-0.6,1.5-0.6,2.5H75.3z
		 M85.8,20.4c-1.2,0.7-2.1,1.3-2.9,1.8c-0.8,0.5-1.3,1.1-1.8,1.6c-0.4,0.5-0.7,1-0.9,1.5s-0.2,1-0.2,1.5c0,0.8,0.2,1.4,0.6,1.7
		c0.4,0.3,1,0.5,1.8,0.5c0.7,0,1.3-0.2,1.9-0.7c0.6-0.5,1.1-1,1.5-1.6V20.4z"></path>
      <path d="M94.2,32.8V8.4H99v2.5c0.5-0.5,1-0.9,1.5-1.2c0.4-0.4,0.9-0.7,1.3-0.9c0.5-0.2,1-0.4,1.5-0.6c0.5-0.1,1.2-0.2,1.9-0.2
		c1.4,0,2.4,0.5,3.2,1.4c0.7,0.9,1.1,2.2,1.1,3.8v19.8h-5.1V13.8c0-0.6-0.2-1.1-0.5-1.3c-0.3-0.3-0.8-0.4-1.3-0.4
		c-0.5,0-1.1,0.2-1.6,0.5c-0.5,0.3-1.1,0.7-1.7,1.1v19.2H94.2z"></path>
      <path d="M123,16.7v-0.6c0-1.4-0.2-2.4-0.7-3.1c-0.5-0.6-1.2-0.9-2.1-0.9s-1.6,0.3-2.1,0.9c-0.5,0.6-0.7,1.6-0.7,3.1v9
		c0,1.4,0.2,2.4,0.7,3.1c0.5,0.6,1.2,0.9,2.1,0.9s1.6-0.3,2.1-0.9c0.5-0.6,0.7-1.6,0.7-3.1v-1.5h5.1v0.6c0,1.3-0.1,2.6-0.4,3.7
		c-0.3,1.1-0.7,2.1-1.4,2.9c-0.6,0.8-1.5,1.4-2.5,1.9c-1,0.4-2.2,0.7-3.7,0.7c-1.5,0-2.7-0.2-3.7-0.7c-1-0.4-1.8-1.1-2.5-1.9
		c-0.6-0.8-1.1-1.8-1.4-2.9c-0.3-1.1-0.4-2.3-0.4-3.7V17c0-1.3,0.1-2.6,0.4-3.7s0.7-2.1,1.4-2.9c0.6-0.8,1.5-1.4,2.5-1.9
		c1-0.4,2.2-0.7,3.7-0.7c1.4,0,2.6,0.2,3.6,0.6c1,0.4,1.8,1,2.4,1.8c0.6,0.8,1.1,1.7,1.4,2.8c0.3,1.1,0.4,2.3,0.5,3.6H123z"></path>
      <path d="M146.4,21.5h-10.7v3.5c0,1.4,0.2,2.4,0.7,3.1c0.5,0.6,1.2,0.9,2.1,0.9s1.6-0.3,2.1-0.9c0.5-0.6,0.7-1.6,0.7-3.1v-0.5h5.1
		c0,1.3-0.2,2.5-0.5,3.5c-0.3,1.1-0.7,2-1.4,2.7c-0.6,0.8-1.4,1.4-2.4,1.8c-1,0.4-2.2,0.6-3.6,0.6c-1.5,0-2.7-0.2-3.7-0.7
		c-1-0.4-1.8-1.1-2.5-1.9c-0.6-0.8-1.1-1.8-1.4-2.9c-0.3-1.1-0.4-2.3-0.4-3.7V17c0-1.3,0.1-2.6,0.4-3.7s0.7-2.1,1.4-2.9
		c0.6-0.8,1.5-1.4,2.5-1.9c1-0.4,2.2-0.7,3.7-0.7c1.5,0,2.7,0.2,3.7,0.7c1,0.4,1.8,1.1,2.5,1.9c0.6,0.8,1.1,1.8,1.4,2.9
		c0.3,1.1,0.4,2.3,0.4,3.7V21.5z M141.3,17.3v-1.3c0-1.4-0.2-2.4-0.7-3.1c-0.5-0.6-1.2-0.9-2.1-0.9s-1.6,0.3-2.1,0.9
		c-0.5,0.6-0.7,1.6-0.7,3.1v1.3H141.3z"></path>
      <path d="M149.2,32.8V8.4h4.9v2.9h0.1c0.6-1.1,1.4-1.9,2.4-2.5c1-0.6,2.1-0.9,3.3-0.9h1v5.3c-0.5-0.1-0.9-0.2-1.4-0.3
		c-0.5-0.1-1.1-0.2-1.9-0.2c-0.9,0-1.7,0.3-2.4,0.8c-0.7,0.5-1,1.4-1,2.5v16.8H149.2z"></path>
  </g>
</svg>
