<?xml version="1.0" standalone="no"?>
<!DOCTYPE svg PUBLIC "-//W3C//DTD SVG 20010904//EN"
 "http://www.w3.org/TR/2001/REC-SVG-20010904/DTD/svg10.dtd">
<svg version="1.0" xmlns="http://www.w3.org/2000/svg"
 width="512.000000pt" height="512.000000pt" viewBox="0 0 512.000000 512.000000"
 preserveAspectRatio="xMidYMid meet">
<metadata>
Created by potrace 1.11, written by Peter Selinger 2001-2013
</metadata>
<g transform="translate(0.000000,512.000000) scale(0.100000,-0.100000)"
fill="#000000" stroke="none">
<path d="M0 2560 l0 -2560 2560 0 2560 0 0 2560 0 2560 -2560 0 -2560 0 0
-2560z m4563 936 c139 -39 229 -102 274 -194 24 -49 28 -69 28 -142 0 -71 -4
-94 -27 -142 -67 -143 -231 -248 -318 -203 -51 26 -44 73 21 142 61 65 79 105
79 180 0 79 -29 129 -95 162 -43 23 -62 26 -150 26 -88 0 -107 -3 -155 -26
-111 -54 -164 -140 -140 -229 18 -68 78 -129 241 -244 273 -194 373 -286 424
-390 87 -178 41 -406 -110 -544 -76 -69 -152 -112 -272 -153 -257 -86 -689
-97 -918 -22 -119 38 -225 110 -286 194 l-34 46 -33 -28 c-67 -58 -298 -154
-481 -198 -304 -75 -546 -66 -603 21 -39 60 -31 116 47 358 107 330 114 373
66 421 -25 25 -37 29 -84 29 -84 0 -117 -9 -121 -34 -22 -123 -79 -344 -132
-506 -35 -110 -67 -217 -70 -239 -11 -69 -8 -68 -314 -72 l-275 -4 1 70 c1 62
10 94 77 272 86 228 118 342 120 426 2 53 -1 61 -26 83 -23 20 -39 24 -90 24
-85 0 -104 -7 -112 -38 -24 -98 -260 -797 -274 -811 -15 -15 -46 -19 -201 -24
-101 -4 -234 -7 -296 -7 -104 0 -114 2 -124 21 -16 28 -9 53 86 302 131 340
194 570 194 705 0 97 -10 94 327 103 158 4 297 3 309 -1 27 -11 38 -41 29 -86
-3 -19 -4 -34 -2 -34 2 0 42 17 88 39 129 59 216 87 313 101 113 16 172 9 246
-31 54 -29 110 -88 110 -116 0 -26 22 -21 123 27 208 98 398 142 520 122 130
-23 199 -94 205 -213 6 -98 -11 -180 -84 -398 -69 -208 -77 -263 -45 -302 17
-21 27 -24 83 -22 65 2 190 36 287 79 29 13 66 24 80 24 l27 0 0 83 c1 92 18
143 76 214 69 87 208 169 383 227 l80 26 -76 78 c-146 149 -179 280 -114 458
63 176 239 301 525 374 132 34 185 39 365 36 119 -3 188 -8 228 -20z"/>
<path d="M3690 2431 c-77 -56 -120 -108 -158 -188 -22 -48 -27 -72 -27 -139 0
-71 3 -85 28 -122 33 -50 103 -97 171 -113 28 -7 87 -10 140 -7 103 6 149 24
218 86 50 46 68 85 68 155 0 66 -32 120 -115 195 -52 46 -243 182 -256 182 -2
0 -33 -22 -69 -49z"/>
</g>
</svg>
